<mxfile host="app.diagrams.net" modified="2022-01-20T07:15:25.110Z" agent="5.0 (Windows NT 10.0; Win64; x64) AppleWebKit/537.36 (KHTML, like Gecko) Chrome/97.0.4692.71 Safari/537.36" etag="0_Kw_iy0ChFJ1NcA3fw1" version="16.2.2" type="github" pages="3">
  <diagram id="Tm4EQs6eWNxIXuwjap-K" name="Page-1">
    <mxGraphModel dx="1422" dy="706" grid="0" gridSize="10" guides="1" tooltips="1" connect="1" arrows="1" fold="1" page="1" pageScale="1" pageWidth="1169" pageHeight="827" math="0" shadow="0">
      <root>
        <mxCell id="0" />
        <mxCell id="1" parent="0" />
        <mxCell id="6K1xF4FvfFzk15-nm9ux-3" style="edgeStyle=orthogonalEdgeStyle;rounded=0;orthogonalLoop=1;jettySize=auto;html=1;exitX=0.5;exitY=1;exitDx=0;exitDy=0;" edge="1" parent="1" source="6K1xF4FvfFzk15-nm9ux-1" target="6K1xF4FvfFzk15-nm9ux-2">
          <mxGeometry relative="1" as="geometry" />
        </mxCell>
        <mxCell id="6K1xF4FvfFzk15-nm9ux-1" value="服务器进行语音识别，识别到开启资料的字段" style="rounded=1;whiteSpace=wrap;html=1;" vertex="1" parent="1">
          <mxGeometry x="467" y="94" width="120" height="60" as="geometry" />
        </mxCell>
        <mxCell id="6K1xF4FvfFzk15-nm9ux-5" style="edgeStyle=orthogonalEdgeStyle;rounded=0;orthogonalLoop=1;jettySize=auto;html=1;exitX=0.5;exitY=1;exitDx=0;exitDy=0;" edge="1" parent="1" source="6K1xF4FvfFzk15-nm9ux-2" target="6K1xF4FvfFzk15-nm9ux-4">
          <mxGeometry relative="1" as="geometry" />
        </mxCell>
        <mxCell id="6K1xF4FvfFzk15-nm9ux-7" style="edgeStyle=orthogonalEdgeStyle;rounded=0;orthogonalLoop=1;jettySize=auto;html=1;exitX=0.75;exitY=1;exitDx=0;exitDy=0;" edge="1" parent="1" source="6K1xF4FvfFzk15-nm9ux-2" target="6K1xF4FvfFzk15-nm9ux-6">
          <mxGeometry relative="1" as="geometry" />
        </mxCell>
        <mxCell id="6K1xF4FvfFzk15-nm9ux-2" value="服务器进行人脸识别，别切和服务器中的资料卡进行匹配" style="rounded=1;whiteSpace=wrap;html=1;" vertex="1" parent="1">
          <mxGeometry x="467" y="211" width="120" height="60" as="geometry" />
        </mxCell>
        <mxCell id="6K1xF4FvfFzk15-nm9ux-11" style="edgeStyle=orthogonalEdgeStyle;rounded=0;orthogonalLoop=1;jettySize=auto;html=1;exitX=0.5;exitY=1;exitDx=0;exitDy=0;" edge="1" parent="1" source="6K1xF4FvfFzk15-nm9ux-4" target="6K1xF4FvfFzk15-nm9ux-10">
          <mxGeometry relative="1" as="geometry" />
        </mxCell>
        <mxCell id="6K1xF4FvfFzk15-nm9ux-4" value="服务器推送人物资料到客户端" style="rounded=1;whiteSpace=wrap;html=1;" vertex="1" parent="1">
          <mxGeometry x="467" y="414" width="120" height="60" as="geometry" />
        </mxCell>
        <mxCell id="6K1xF4FvfFzk15-nm9ux-8" style="edgeStyle=orthogonalEdgeStyle;rounded=0;orthogonalLoop=1;jettySize=auto;html=1;exitX=0.5;exitY=1;exitDx=0;exitDy=0;" edge="1" parent="1" source="6K1xF4FvfFzk15-nm9ux-6" target="6K1xF4FvfFzk15-nm9ux-4">
          <mxGeometry relative="1" as="geometry" />
        </mxCell>
        <mxCell id="6K1xF4FvfFzk15-nm9ux-6" value="通过百度知道，wiki等人脸匹配搜索，来确认资料，进行爬取记录" style="rounded=1;whiteSpace=wrap;html=1;" vertex="1" parent="1">
          <mxGeometry x="616" y="311" width="120" height="60" as="geometry" />
        </mxCell>
        <mxCell id="6K1xF4FvfFzk15-nm9ux-9" value="没有匹配" style="text;html=1;strokeColor=none;fillColor=none;align=center;verticalAlign=middle;whiteSpace=wrap;rounded=0;" vertex="1" parent="1">
          <mxGeometry x="606" y="253" width="60" height="30" as="geometry" />
        </mxCell>
        <mxCell id="6K1xF4FvfFzk15-nm9ux-13" style="edgeStyle=orthogonalEdgeStyle;rounded=0;orthogonalLoop=1;jettySize=auto;html=1;exitX=0.5;exitY=1;exitDx=0;exitDy=0;" edge="1" parent="1" source="6K1xF4FvfFzk15-nm9ux-10" target="6K1xF4FvfFzk15-nm9ux-12">
          <mxGeometry relative="1" as="geometry" />
        </mxCell>
        <mxCell id="6K1xF4FvfFzk15-nm9ux-10" value="客户端通过躯干网络确定人物的视频流中人物同步位置" style="rounded=1;whiteSpace=wrap;html=1;" vertex="1" parent="1">
          <mxGeometry x="467" y="517" width="120" height="60" as="geometry" />
        </mxCell>
        <mxCell id="6K1xF4FvfFzk15-nm9ux-12" value="客户端将人物名称贴在了人物头顶的位置上" style="rounded=1;whiteSpace=wrap;html=1;" vertex="1" parent="1">
          <mxGeometry x="467" y="614" width="120" height="60" as="geometry" />
        </mxCell>
      </root>
    </mxGraphModel>
  </diagram>
  <diagram id="Q73z8sRrKPgo8h5EN-Sm" name="Page-2">
    <mxGraphModel dx="1422" dy="706" grid="0" gridSize="10" guides="1" tooltips="1" connect="1" arrows="1" fold="1" page="1" pageScale="1" pageWidth="1169" pageHeight="827" math="0" shadow="0">
      <root>
        <mxCell id="5DssbOyAqJJXMeC2r0D3-0" />
        <mxCell id="5DssbOyAqJJXMeC2r0D3-1" parent="5DssbOyAqJJXMeC2r0D3-0" />
        <mxCell id="7yDvNVEbBrVJAK6fB2Fs-0" style="edgeStyle=orthogonalEdgeStyle;rounded=0;orthogonalLoop=1;jettySize=auto;html=1;exitX=0.5;exitY=1;exitDx=0;exitDy=0;" edge="1" parent="5DssbOyAqJJXMeC2r0D3-1" source="7yDvNVEbBrVJAK6fB2Fs-1" target="7yDvNVEbBrVJAK6fB2Fs-2">
          <mxGeometry relative="1" as="geometry" />
        </mxCell>
        <mxCell id="7yDvNVEbBrVJAK6fB2Fs-13" style="edgeStyle=orthogonalEdgeStyle;rounded=0;orthogonalLoop=1;jettySize=auto;html=1;exitX=0.5;exitY=1;exitDx=0;exitDy=0;fontSize=30;" edge="1" parent="5DssbOyAqJJXMeC2r0D3-1" source="7yDvNVEbBrVJAK6fB2Fs-1" target="7yDvNVEbBrVJAK6fB2Fs-12">
          <mxGeometry relative="1" as="geometry" />
        </mxCell>
        <mxCell id="7yDvNVEbBrVJAK6fB2Fs-1" value="服务器对直播间视频流进行采集，并直播间图像进行网络检测" style="rounded=1;whiteSpace=wrap;html=1;" vertex="1" parent="5DssbOyAqJJXMeC2r0D3-1">
          <mxGeometry x="453" y="278" width="120" height="60" as="geometry" />
        </mxCell>
        <mxCell id="7yDvNVEbBrVJAK6fB2Fs-2" value="将文字横向贴到胸部的位置" style="rounded=1;whiteSpace=wrap;html=1;" vertex="1" parent="5DssbOyAqJJXMeC2r0D3-1">
          <mxGeometry x="336" y="430" width="120" height="60" as="geometry" />
        </mxCell>
        <mxCell id="7yDvNVEbBrVJAK6fB2Fs-5" style="edgeStyle=orthogonalEdgeStyle;rounded=0;orthogonalLoop=1;jettySize=auto;html=1;exitX=1;exitY=0.5;exitDx=0;exitDy=0;" edge="1" parent="5DssbOyAqJJXMeC2r0D3-1" source="7yDvNVEbBrVJAK6fB2Fs-3" target="7yDvNVEbBrVJAK6fB2Fs-4">
          <mxGeometry relative="1" as="geometry" />
        </mxCell>
        <mxCell id="7yDvNVEbBrVJAK6fB2Fs-3" value="人工制作人物的躯干，胸部，手臂位置标示，人物衣服颜色标识" style="rounded=1;whiteSpace=wrap;html=1;" vertex="1" parent="5DssbOyAqJJXMeC2r0D3-1">
          <mxGeometry x="207" y="47" width="120" height="60" as="geometry" />
        </mxCell>
        <mxCell id="7yDvNVEbBrVJAK6fB2Fs-7" style="edgeStyle=orthogonalEdgeStyle;rounded=0;orthogonalLoop=1;jettySize=auto;html=1;exitX=1;exitY=0.5;exitDx=0;exitDy=0;" edge="1" parent="5DssbOyAqJJXMeC2r0D3-1" source="7yDvNVEbBrVJAK6fB2Fs-4" target="7yDvNVEbBrVJAK6fB2Fs-6">
          <mxGeometry relative="1" as="geometry" />
        </mxCell>
        <mxCell id="7yDvNVEbBrVJAK6fB2Fs-4" value="服务器对图标和标识进行多头网络训练" style="rounded=1;whiteSpace=wrap;html=1;" vertex="1" parent="5DssbOyAqJJXMeC2r0D3-1">
          <mxGeometry x="453" y="47" width="120" height="60" as="geometry" />
        </mxCell>
        <mxCell id="7yDvNVEbBrVJAK6fB2Fs-11" style="edgeStyle=orthogonalEdgeStyle;rounded=0;orthogonalLoop=1;jettySize=auto;html=1;exitX=0.5;exitY=1;exitDx=0;exitDy=0;entryX=1;entryY=0.5;entryDx=0;entryDy=0;" edge="1" parent="5DssbOyAqJJXMeC2r0D3-1" source="7yDvNVEbBrVJAK6fB2Fs-6" target="7yDvNVEbBrVJAK6fB2Fs-1">
          <mxGeometry relative="1" as="geometry" />
        </mxCell>
        <mxCell id="7yDvNVEbBrVJAK6fB2Fs-6" value="服务器得到检测网络" style="rounded=1;whiteSpace=wrap;html=1;" vertex="1" parent="5DssbOyAqJJXMeC2r0D3-1">
          <mxGeometry x="717" y="47" width="120" height="60" as="geometry" />
        </mxCell>
        <mxCell id="7yDvNVEbBrVJAK6fB2Fs-9" style="edgeStyle=orthogonalEdgeStyle;rounded=0;orthogonalLoop=1;jettySize=auto;html=1;exitX=0.5;exitY=0;exitDx=0;exitDy=0;entryX=0.5;entryY=1;entryDx=0;entryDy=0;" edge="1" parent="5DssbOyAqJJXMeC2r0D3-1" source="7yDvNVEbBrVJAK6fB2Fs-8" target="7yDvNVEbBrVJAK6fB2Fs-4">
          <mxGeometry relative="1" as="geometry" />
        </mxCell>
        <mxCell id="7yDvNVEbBrVJAK6fB2Fs-10" style="edgeStyle=orthogonalEdgeStyle;rounded=0;orthogonalLoop=1;jettySize=auto;html=1;exitX=0.5;exitY=1;exitDx=0;exitDy=0;" edge="1" parent="5DssbOyAqJJXMeC2r0D3-1" source="7yDvNVEbBrVJAK6fB2Fs-8" target="7yDvNVEbBrVJAK6fB2Fs-1">
          <mxGeometry relative="1" as="geometry" />
        </mxCell>
        <mxCell id="7yDvNVEbBrVJAK6fB2Fs-8" value="&lt;font style=&quot;font-size: 30px&quot;&gt;服务器&lt;/font&gt;" style="rounded=1;whiteSpace=wrap;html=1;" vertex="1" parent="5DssbOyAqJJXMeC2r0D3-1">
          <mxGeometry x="453" y="161" width="120" height="60" as="geometry" />
        </mxCell>
        <mxCell id="7yDvNVEbBrVJAK6fB2Fs-17" style="edgeStyle=orthogonalEdgeStyle;rounded=0;orthogonalLoop=1;jettySize=auto;html=1;exitX=0.5;exitY=1;exitDx=0;exitDy=0;entryX=0.5;entryY=0;entryDx=0;entryDy=0;fontSize=12;" edge="1" parent="5DssbOyAqJJXMeC2r0D3-1" source="7yDvNVEbBrVJAK6fB2Fs-12" target="7yDvNVEbBrVJAK6fB2Fs-16">
          <mxGeometry relative="1" as="geometry" />
        </mxCell>
        <mxCell id="7yDvNVEbBrVJAK6fB2Fs-20" style="edgeStyle=orthogonalEdgeStyle;rounded=0;orthogonalLoop=1;jettySize=auto;html=1;exitX=0.5;exitY=1;exitDx=0;exitDy=0;fontSize=12;" edge="1" parent="5DssbOyAqJJXMeC2r0D3-1" source="7yDvNVEbBrVJAK6fB2Fs-12" target="7yDvNVEbBrVJAK6fB2Fs-19">
          <mxGeometry relative="1" as="geometry" />
        </mxCell>
        <mxCell id="7yDvNVEbBrVJAK6fB2Fs-12" value="进行手臂位置范围检测" style="rounded=1;whiteSpace=wrap;html=1;" vertex="1" parent="5DssbOyAqJJXMeC2r0D3-1">
          <mxGeometry x="605" y="430" width="120" height="60" as="geometry" />
        </mxCell>
        <mxCell id="7yDvNVEbBrVJAK6fB2Fs-14" value="&lt;font style=&quot;font-size: 12px&quot;&gt;识别到胸部位置并且区域比例足够大&lt;/font&gt;" style="text;html=1;strokeColor=none;fillColor=none;align=center;verticalAlign=middle;whiteSpace=wrap;rounded=0;fontSize=30;" vertex="1" parent="5DssbOyAqJJXMeC2r0D3-1">
          <mxGeometry x="251" y="352" width="197" height="30" as="geometry" />
        </mxCell>
        <mxCell id="7yDvNVEbBrVJAK6fB2Fs-15" value="&lt;font style=&quot;font-size: 12px&quot;&gt;未识别胸部位置并且或者区域较小&lt;/font&gt;" style="text;html=1;strokeColor=none;fillColor=none;align=center;verticalAlign=middle;whiteSpace=wrap;rounded=0;fontSize=30;" vertex="1" parent="5DssbOyAqJJXMeC2r0D3-1">
          <mxGeometry x="570" y="347" width="197" height="30" as="geometry" />
        </mxCell>
        <mxCell id="7yDvNVEbBrVJAK6fB2Fs-16" value="&lt;span&gt;将文字竖向贴到手臂的位置&lt;/span&gt;" style="rounded=1;whiteSpace=wrap;html=1;" vertex="1" parent="5DssbOyAqJJXMeC2r0D3-1">
          <mxGeometry x="499" y="562" width="120" height="60" as="geometry" />
        </mxCell>
        <mxCell id="7yDvNVEbBrVJAK6fB2Fs-18" value="&lt;font style=&quot;font-size: 12px&quot;&gt;识别到手臂位置并且区域比例足够大&lt;/font&gt;" style="text;html=1;strokeColor=none;fillColor=none;align=center;verticalAlign=middle;whiteSpace=wrap;rounded=0;fontSize=30;" vertex="1" parent="5DssbOyAqJJXMeC2r0D3-1">
          <mxGeometry x="444" y="490" width="197" height="30" as="geometry" />
        </mxCell>
        <mxCell id="7yDvNVEbBrVJAK6fB2Fs-19" value="&lt;span&gt;贴到人物头顶位置&lt;/span&gt;" style="rounded=1;whiteSpace=wrap;html=1;" vertex="1" parent="5DssbOyAqJJXMeC2r0D3-1">
          <mxGeometry x="713" y="562" width="120" height="60" as="geometry" />
        </mxCell>
        <mxCell id="7yDvNVEbBrVJAK6fB2Fs-21" value="&lt;font style=&quot;font-size: 12px&quot;&gt;未识别手臂位置并且或者区域较小&lt;/font&gt;" style="text;html=1;strokeColor=none;fillColor=none;align=center;verticalAlign=middle;whiteSpace=wrap;rounded=0;fontSize=30;" vertex="1" parent="5DssbOyAqJJXMeC2r0D3-1">
          <mxGeometry x="678.5" y="492" width="197" height="30" as="geometry" />
        </mxCell>
      </root>
    </mxGraphModel>
  </diagram>
  <diagram id="a9ZOQasg_19ZerbNRyQr" name="Page-3">
    <mxGraphModel dx="1422" dy="706" grid="0" gridSize="10" guides="1" tooltips="1" connect="1" arrows="1" fold="1" page="1" pageScale="1" pageWidth="1169" pageHeight="827" math="0" shadow="0">
      <root>
        <mxCell id="6QsOvPkgzdzMSzrrbGfm-0" />
        <mxCell id="6QsOvPkgzdzMSzrrbGfm-1" parent="6QsOvPkgzdzMSzrrbGfm-0" />
      </root>
    </mxGraphModel>
  </diagram>
</mxfile>
